<svg id="Logo" xmlns="http://www.w3.org/2000/svg" viewBox="0 0 330.7 60.4"><style>.st0{fill:#FFFFFF}.st1{fill:#FFFFFF}</style><path class="st0" d="M133.2 37.7c-2.2 2-2.7 5.1-1.1 6.8 1.6 1.7 4.5 1.5 6-.1.5-.5 1.2-2 1.5-2.6.4-.7 2.7-5.2 3.1-5.9 0 0-1-.6-2.7-.6-2.2 0-4.6.4-6.8 2.4zm76.7.2c-.5.9-.8 1.5-.8 1.5l-1.2 2.7c-.4 1 .2 2.2.9 2.8.8.6 1.5.8 2.5.9 1.6.1 2.6-.3 3.8-1 1.4-.8 2-1.7 2.8-2.8.6-.9.8-1.4.9-2.2.2-.8.1-1.5-.1-2-.2-.7-.7-1.2-1-1.5-.9-.6-1.8-.8-3-.8-1.3 0-2.4.2-3.4.7-.8.6-1.1 1-1.4 1.7zm26.1-.2c-2.2 2-2.7 5.1-1.1 6.8 1.6 1.7 4.5 1.5 6-.1.5-.5 1.2-2 1.5-2.6.4-.7 2.7-5.2 3.1-5.9 0 0-1-.6-2.7-.6-2.3 0-4.6.4-6.8 2.4zm82.2-1.4c.3-.2-.9-.5-1.5-.6-.4-.1-.9-.1-1.3-.1-.9 0-1.8.2-2.7.4-.4.1-.8.3-1.2.5-.9.4-1.6 1-2.1 1.7-.5.6-.8 1.4-.8 2.1 0 1 .5 1.8 1.4 2.4l7-5.3 1.2-1.1zm-136.3 1.4c-2.2 2-2.7 5.1-1.1 6.8 1.6 1.7 4.5 1.5 6-.1.5-.5 1.2-2 1.5-2.6.4-.7 2.7-5.2 3.1-5.9 0 0-1-.6-2.7-.6-2.3 0-4.6.4-6.8 2.4zm-54.5 7.8s-.2-.2-.4-.5l-.6-.9c-.2-.3-.3-.6-.4-1 0-.2-.1-.3-.1-.5-1-4.3 3.1-8.9 9.3-10.3 3.8-.9 9.3-.3 12.9 1.3.3.2.6.3 1 .5l-5.2 10.5c-.1.3 0 .5.2.7.2.2.4.1.8.1h7.1l-.3-.4c-.3-.3-.4-.7-.4-1 .1-.9 1.5-1.5 2.8-1.3.8.1 1.1.5 1.7 1 .7.6.9 1 1.8 1.5 1 .5 1.7.8 2.8.7.8-.1 1.2-.2 1.8-.6.9-.6 1.2-1.4.7-2.3-.4-.9-1.7-1.1-2.6-1.5-1.3-.6-2.2-.9-3.1-1.7-1.7-1.6-2.1-3.2-1.2-5 .3-.7.7-1.1 1.3-1.6.8-.7 1.4-1 2.5-1.3 1-.3 1.9-.4 2.7-.5 1.1-.1 2.1-.1 3.4.2.9.2 2.5.7 3.1 1.1.5.3.8.4 1.4 1 .9.9 1.1 2.2.3 2.9-.7.5-1.6.5-2.4.3-.8-.2-1.6-.8-2.3-1.4-.5-.3-1-.6-1.5-.7-.3-.1-.8-.2-1.9-.1-.6.1-.7.2-1.1.4-.5.2-1 1-1 1.6.1.7.6 1.2.9 1.4.5.3 1 .7 1.7.9 1.2.4 2.9.7 4 1.6.7.5 1.2 1.1 1.5 2 .2.5.2.9.1 1.5s-.4 1.1-.8 1.3h8s-.2-.2-.4-.5l-.6-.9c-.2-.3-.3-.6-.4-1 0-.2-.1-.3-.1-.5-1-4.3 3.1-8.9 9.3-10.3 3.8-.9 9.3-.3 12.9 1.3.3.2.6.3 1 .5l-5.2 10.5c-.1.3 0 .5.2.7.2.2.4.1.8.1h5.4c.3 0 .5-.1.8-.2.3-.2.4-.3.5-.6l4.8-10.1 5.2-11c.3-.4.6-.7 1.1-.9.4-.2 1.1-.4 1.9-.3.9.1 1.4.4 2 .9.6.6.6 1 .5 1.6 0 .4-.2.5-.3.9l-3.2 7.2c.2-.1.6-.3.9-.4.9-.3 1.7-.4 2.3-.5.8-.1 2.3-.2 3.6.1 1.9.4 2.9 1.1 4 2.3 1.1 1.2 1.6 3 1.5 4.9-.1 1.8-1.2 3.7-1.9 4.5-.5.6-.7.9-1.5 1.4-.3.2-.3.2-.6.3h9.8s-.2-.2-.4-.5l-.6-.9c-.2-.3-.3-.6-.4-1 0-.2-.1-.3-.1-.5-1-4.3 3.2-8.9 9.3-10.3 3.8-.9 9.3-.3 12.9 1.3.3.2.6.3 1 .5l-5.2 10.5c-.1.3 0 .5.2.7.2.2.4.1.8.1h5.4c.4 0 .6 0 .9-.1.3-.1.5-.3.6-.4.2-.2.3-.4.5-.6l9.7-20.8c.3-.4.6-.7 1.1-1 .4-.2 1.1-.4 1.9-.4.9.1 1.4.3 2 .8.6.5.6.9.5 1.6 0 .4-.2.5-.3.9l-3.5 7.9 1.1-.5.3-.1s4.8-1.9 8.2 0c.8.5 2.1 1.7 1.2 4.1l-.1.2c-.1.3-.2.5-.3.8l-2.7 6.1c-.1.2-.3.9.3 1.2.2.1.8.1 1.2.1h8.2c-1.2-1.3-2-2.9-2-4.6 0-4.6 5.5-8.6 12.2-8.6 1.5 0 2.9.2 4.3.6 1.5.5 2.9 1.5 2.5 2.7-.2.5-.5.8-1.2 1-.8.3-1.4.1-2.2-.1-1-.4-2-.6-3.2-.6-.7 0-1.3 0-2.1.2-.2 0-.4.1-.6.2-2.6.7-4.4 2.6-4.4 4.5 0 3.5 3.5 4.7 7 4.7h9.4c.6 0 1.1-.1 1.4-.3l.2-.1c-1.1-1.2-1.7-2.7-1.7-4.2 0-4.7 5.7-8.5 12.7-8.5h1.1c1.4.1 2.6.5 3.2.7.8.3 2.4.8 3 1.8.5.8.5 1.4 0 2.2-.2.4-.4.6-.8.9-.2.2-.4.3-.6.4l-9.2 6.6c.2.2.3.3.6.4.5.2 1.6.1 2.4.1h12c.6 0 1 0 1.5.1.7.2 1.5.8 1.5 1.5 0 .6-.1.9-.4 1.3-.4.5-.8.8-1.4.8H316.7c-.8 0-4.1 0-5.6-.4-.9-.3-1.6-.7-2.3-1.2l-.3.3c-.5.4-.8.6-1.4.8-.6.2-.7.3-1.6.4-.7.1-1.4.1-1.9.1h-11.8c-3.1 0-4.6-.8-5.4-1.4 0 0-.4.4-1.3.8-.8.4-1.6.5-2.3.5h-11.1c-.6 0-1.3-.2-1.8-.4-1-.5-1.6-.9-1.9-1.8-.2-.5-.1-1.1 0-1.8.1-.4.4-1 .6-1.7l2.9-6.6c.1-.2.1-.4 0-.6-.3-.4-1.1-.4-1.7-.3-1.6.3-2 .4-3.1.9-1 .5-1.4.9-2.1 1.6-.4.4-.6.7-.8 1.2l-2.5 5.1-.5 1c-.7 1.2-1 2-2.5 2.8-1.2.6-2.5.5-3 .5h-8.7c-.6 0-1.2-.1-1.6-.2-.4-.1-1-.3-1.5-.6-.6-.3-.8-.6-1.2-1 0 0-.6.6-1 .8-.6.4-1 .6-1.7.8-1.1.3-1.7.2-2.9.2H210.3c-.8 0-1.3 0-2-.1-.9-.2-1.5-.4-2.1-1-.4-.4-.5-.6-.6-1 0 0-.3.6-1.4 1.4-.6.4-.9.5-1.7.7-.4.1-.9.1-1.4.1h-8.5c-.6 0-1.2-.1-1.6-.2-.4-.1-1-.3-1.5-.6-.6-.3-.8-.6-1.2-1 0 0-.6.6-1 .8-.6.4-1 .6-1.7.8-1.1.3-1.7.2-2.9.2h-21.6c-1 0-1.9 0-2.6-.1-.7-.1-1.4-.1-2.3-.4-.6-.2-.9-.3-1.4-.6-.5-.2-.8-.4-1.3-.7 0 0-.2.5-.4.7-.3.3-.4.4-.8.6-.3.2-.7.3-1.3.4H143.8c-.6 0-1.2-.1-1.6-.2-.4-.1-1-.3-1.5-.6-.6-.3-.8-.6-1.2-1 0 0-.6.6-1 .8-.6.4-1 .6-1.7.8-1.1.3-1.7.2-2.9.2h-11.7c-.8 0-1.6 0-2.3-.2-.5-.1-1.2-.6-1.3-1.3-.1-.4 0-.7.2-1 .2-.3.3-.5.6-.7.6-.4 1.2-.5 2.1-.5h5.9zM108.8 37.6c.1-.1.1-.1 0 0z"/><path class="st0" d="M107.3 36.1c.1-.2.1-.2 0 0zM96.5 49.4c-.7.9-1.5 1.8-2.4 2.6-6.8 5.3-16.7 5.2-21.8-.1-.8-.9-1.5-1.8-2-2.8-.3-.5-.4-.8-.6-1.2-.2-.4-.3-.8-.3-1.3 0-1.8 1.4-3.2 3.2-3.2 1.4 0 2.6.9 3 2.2.3 1 .8 1.8 1.4 2.6 1.1 1.3 2.5 2.1 4.1 2.4 1.2.2 2.9.2 4.4-.1 1.6-.4 3.1-1.2 4.5-2.4.9-.8 1.6-1.7 2.2-2.7l.3-.5c.9-1.5 1.4-2.4 2.1-4l9.1-20h-1c-9.5.2-16 2.8-18.9 6.1-1.4 1.7-1.9 2.9-1.5 4.8.2 1.1 1.2 2.6 3.3 3.3 1.2.3 2.1 1.1 2.1 2.1 0 1.2-1.4 2.2-3.1 2.2h-.4c-5.1-.3-7.6-4-8-6.3-.5-3.1 0-5 1.8-7.7 3.9-5.2 13.2-8.7 23.7-8.7 1.4 0 2.8 0 4.1.1l1.1-2.6c.4-1 .4-1.1.8-1.8.5-1 1.4-1.3 2.8-1.4.8-.1 1.7.1 2.4.4 1.2.6 1.3 1.5.8 2.6l-1.6 3.4-.1.1c11.3 1.9 15.7 7.2 15.4 12.2-.2 3.2-1.9 5.4-3.7 7-2.8 2.6-10.1 5.6-16.6 1.7-.2-.1-.4-.2-.5-.3-.4-.4-.7-.8-.7-1.3 0-1.1 1.3-2 2.8-2 .5 0 .9.1 1.3.2 3.6 1.1 6.6.7 8.5-.5 1.7-1.2 2.5-2.7 2.6-4.8.2-3.2-3-6.8-11-8.1l-9.8 21.2c-.5 1.2-.8 1.8-1.4 2.9-.7 1.3-1.5 2.6-2.4 3.7zM288 52c.1-.3.2-.4.4-.7.5-.6 1.2-.7 2.2-.7.7 0 1.3.1 1.7.5.5.4.5.7.4 1.2-.1.2-.1.4-.3.6l-.8 1.7c-.1.3-.2.4-.4.7-.5.6-1.2.7-2.2.7-.7 0-1.3-.1-1.7-.5-.5-.4-.5-.7-.4-1.2.1-.2.1-.4.3-.6l.8-1.7zM155 52c.1-.3.2-.4.4-.7.5-.6 1.2-.7 2.2-.7.7 0 1.3.1 1.7.5.5.4.5.7.4 1.2-.1.2-.1.4-.3.6l-.8 1.7c-.1.3-.2.4-.4.7-.5.6-1.2.7-2.2.7-.7 0-1.3-.1-1.7-.5-.5-.4-.5-.7-.4-1.2.1-.2.1-.4.3-.6l.8-1.7z"/><path class="st1" d="M36.4 0C16.2.2-.1 10.7 0 23.5c0 .9.1 1.8.3 2.6 1.3 6.7 7.2 11.7 14.3 11.7 5.5 0 10.2-3.1 12.6-7.7C33 18.8 37.5 2.4 47 .9 43.6.3 40.1 0 36.4 0zM23.8 60.4C44 60.4 60.4 50 60.4 37.2c0-.9-.1-1.8-.3-2.6-1.2-6.7-7.1-11.8-14.2-11.8-5.5 0-10.2 3.1-12.7 7.6-5.9 11.3-10.5 27.5-20 29 3.4.7 6.9 1 10.6 1z"/></svg>
